<svg fill="none" height="49" viewBox="0 0 138 49" width="138" xmlns="http://www.w3.org/2000/svg"><g fill="#fff"><path d="m21.4266 14.528h6.1129c-.1658-.6861-.5675-1.2927-1.1354-1.7146-.5679-.422-1.2661-.6326-1.9736-.5954-.6939-.0304-1.3762.185-1.9261.6078-.5498.4228-.9316 1.0258-1.0778 1.7022zm11.2091 1.494c-.0019.4581-.037.9155-.1051 1.3685h-11.1754c.3361 1.7242 1.4368 2.6156 3.0753 2.6156.5395.0284 1.0768-.0873 1.5562-.3353s.8835-.6191 1.1705-1.075h5.1634c-1.0587 3.4274-4.1089 5.5701-7.8901 5.5701-4.7012 0-8.1883-3.4233-8.1883-8.0141 0-4.5909 3.4577-7.98481 8.1883-7.98481 4.8567 0 8.222 3.45251 8.222 7.85501z"/><path d="m60.4128 19.0181c.432.0098.8613-.0693 1.2611-.2324s.7614-.4067 1.0624-.7154c.3009-.3088.5346-.6762.6864-1.0791s.2184-.8327.1957-1.2624c.0157-.4299-.0559-.8585-.2102-1.2602-.1544-.4018-.3885-.7684-.6883-1.078s-.6592-.5559-1.0566-.7241c-.3975-.1682-.8249-.2549-1.2568-.2549-.4318 0-.8592.0867-1.2567.2549-.3974.1682-.7568.4145-1.0566.7241s-.5339.6762-.6883 1.078c-.1543.4017-.2259.8303-.2102 1.2602-.0228.4308.0442.8617.1968 1.2655.1525.4037.3873.7717.6896 1.0807.3023.3089.6655.5522 1.0668.7145.4013.1624.832.2402 1.2649.2286zm8.0707-10.36178v13.34558c0 4.7206-3.1005 7.6417-8.0833 7.6417-4.2769 0-7.2682-2.1469-7.9824-5.704h5.0079c.3613 1.0043 1.6469 1.5442 2.9073 1.5442 1.7394 0 3.1384-1.1006 3.1384-2.8876v-.4478c-1.1765.7405-2.5408 1.131-3.9324 1.1258-4.3232 0-7.5329-3.2015-7.5329-7.5329-.0241-.9932.1541-1.9811.5238-2.9039s.9232-1.7615 1.6271-2.4654c.704-.70392 1.5437-1.25853 2.4687-1.63036s1.916-.55318 2.9133-.53311c1.7417-.00761 3.4282.60878 4.7517 1.73673l.6596-1.25546z"/><path d="m74.9383 14.528h6.0919c-.1642-.6861-.5649-1.2931-1.1322-1.7153-.5674-.4221-1.2654-.6326-1.9726-.5947-.6911-.0263-1.3694.1909-1.9157.6133-.5463.4225-.9257 1.0233-1.0714 1.6967zm11.2091 1.494c-.0033.4582-.0398.9156-.1092 1.3685h-11.1923c.3403 1.7242 1.4368 2.6156 3.0795 2.6156.5416.0312 1.0817-.0833 1.5636-.3314.482-.2481.888-.6208 1.1757-1.0789h5.1676c-1.0587 3.4274-4.1089 5.5701-7.89 5.5701-4.7055 0-8.1884-3.4233-8.1884-8.0141 0-4.5909 3.4577-7.98481 8.1884-7.98481 4.8567 0 8.2219 3.45251 8.2219 7.85501z"/><path d="m112.074 19.5201c1.891 0 3.248-1.3685 3.248-3.348 0-1.9794-1.357-3.3479-3.248-3.3479-1.89 0-3.252 1.3685-3.252 3.3479 0 1.9795 1.357 3.348 3.252 3.348zm-8.453-3.348c0-4.6536 3.538-7.9973 8.453-7.9973 4.916 0 8.449 3.3479 8.449 7.9973 0 4.6495-3.554 8.0016-8.449 8.0016-4.894 0-8.453-3.348-8.453-8.0016z"/><path d="m129.916 19.0181c.432.0098.861-.0693 1.261-.2324s.761-.4067 1.062-.7154c.301-.3088.535-.6762.687-1.0791.151-.4029.218-.8327.195-1.2624.016-.4299-.055-.8585-.21-1.2602-.154-.4018-.388-.7684-.688-1.078s-.659-.5559-1.057-.7241c-.397-.1682-.825-.2549-1.256-.2549-.432 0-.86.0867-1.257.2549-.398.1682-.757.4145-1.057.7241s-.534.6762-.688 1.078c-.154.4017-.226.8303-.21 1.2602-.023.4308.044.8617.196 1.2655.153.4037.388.7717.69 1.0807.302.3089.666.5522 1.067.7145.401.1624.832.2402 1.265.2286zm8.058-10.36178v13.34558c0 4.7206-3.101 7.6417-8.079 7.6417-4.277 0-7.268-2.1469-7.962-5.704h5.008c.357 1.0043 1.647 1.5442 2.908 1.5442 1.739 0 3.138-1.1006 3.138-2.8876v-.4478c-1.176.7405-2.541 1.131-3.932 1.1258-4.324 0-7.533-3.2015-7.533-7.5329-.024-.9932.154-1.9811.524-2.9039.369-.9228.923-1.7615 1.627-2.4654.704-.70392 1.543-1.25853 2.468-1.63036s1.916-.55318 2.914-.53311c1.741-.00761 3.428.60878 4.751 1.73673l.66-1.25546z"/><path d="m9.21346 8.2135c-1.46455.00816-2.88262.51295-4.02065 1.43123v-8.729691l-5.19281 1.732551v21.02491h5.19281v-8.0183c0-1.925.97891-3.0382 2.55019-3.0382 1.35282 0 1.96621.883 1.96621 2.6156v8.4409h5.18859v-9.0394c0-3.8919-2.2225-6.4196-5.68434-6.4196z"/><path d="m42.5487 19.6c-.4504.0055-.8972-.0804-1.3133-.2522-.416-.1719-.7927-.4262-1.107-.7476-.3144-.3213-.5599-.703-.7216-1.1217-.1617-.4188-.2363-.8659-.2192-1.3143 0-.8912.3555-1.746.9882-2.3762s1.4907-.9842 2.3855-.9842c.8947 0 1.7528.354 2.3855.9842s.9881 1.485.9881 2.3762c.0172.4484-.0574.8955-.2191 1.3143-.1617.4187-.4072.8004-.7216 1.1217-.3143.3214-.691.5757-1.107.7476-.4161.1718-.8629.2577-1.3133.2522zm3.0753-16.95297v6.56192c-1.1257-.6919-2.4247-1.0531-3.7475-1.04204-4.6214 0-7.9195 3.34789-7.9195 7.99729 0 4.6495 3.2981 8.0141 7.9195 8.0141 1.6616.0156 3.2746-.5585 4.55-1.6195l.4873 1.1132h3.8442v-22.778445z"/><path d="m96.6305 8.21252c-1.4659.00755-2.8855.51236-4.0248 1.43124v-8.729698l-5.176 1.732548v21.02489h5.1928v-8.0182c0-1.9251.9789-3.0383 2.5502-3.0383 1.3528 0 1.9662.883 1.9662 2.6156v8.4409h5.1931v-9.0393c0-3.892-2.227-6.41968-5.6847-6.41968"/></g><path d="m18.4464 40.65c-.0157-.6585-.2261-1.2978-.6049-1.8378-.3787-.54-.9089-.9567-1.5243-1.198-.6154-.2412-1.2885-.2963-1.9351-.1583-.6467.1381-1.2381.463-1.7002.9342-.4621.4713-.7743 1.0678-.8977 1.715-.1233.6472-.0523 1.3162.2043 1.9233.2566.6072.6872 1.1254 1.2381 1.4899s1.1974.559 1.8587.5592c.45.0065.8967-.0782 1.3127-.2492.416-.1709.7928-.4245 1.1072-.7452.3145-.3206.5601-.7017.7219-1.1201.1618-.4183.2364-.865.2193-1.313zm4.9365-7.5328v15.0112h-4.0122l-.4454-1.0588c-1.2886 1.032-2.8967 1.5866-4.55 1.5694-4.62142 0-7.90264-3.3479-7.90264-8.0183 0-4.6703 3.29382-7.9513 7.90264-7.9513 1.6825-.0196 3.3184.5508 4.6214 1.6112l.5294-1.1592z" fill="#1873f2"/><path d="m5.19281 25.3418h-5.19281v22.8328h5.19281z" fill="#1873f2"/><path d="m33.1334 44.0862c-.6811.0133-1.3508-.1758-1.9235-.5432-.5728-.3674-1.0226-.8965-1.2922-1.5197s-.3466-1.3122-.2214-1.9793c.1253-.667.4473-1.2817.9248-1.7656.4775-.484 1.0889-.8153 1.7563-.9516.6673-.1364 1.3603-.0716 1.9905.1861s1.1691.6965 1.5478 1.2606c.3788.564.5802 1.2276.5787 1.9062.0155.4466-.0605.8916-.2231 1.308-.1627.4163-.4088.7954-.7232 1.1141-.3144.3186-.6906.5703-1.1057.7395-.4152.1692-.8605.2526-1.309.2449zm.6932-11.3871c-1.3221-.0105-2.6206.3491-3.7476 1.0379v-8.3698l-5.1298 1.6865v21.1295h3.84l.4916-1.1131c1.2762 1.0552 2.8872 1.6247 4.5458 1.607 4.6214 0 7.9194-3.3229 7.9194-7.989 0-4.6662-3.277-7.989-7.9194-7.989z" fill="#1873f2"/></svg>